:SAMPLES-PER-SECOND 30
:FULLY-SPECIFIED
:DEGREES
36
root  35.00245162 36.53034601 -14.66998904 9.965150833 0.6490983367 2.806829453
lowerback  -8.152190208 0.4487110674 1.14255023
upperback  -3.688030005 0.2065880001 -2.827830076
thorax  0.7716159821 -0.07831799984 -3.549469948
lowerneck  -15.04520035 3.180730104 2.371929884
upperneck  13.43910027 3.021729946 3.788379908
head  6.549069881 1.855550051 1.126979947
lclavicle  0 -4.497500157e-015 -2.743230041e-014
lhumerus  -44.16830063 26.08670044 70.56240082
lradius  -0.4685119987 -6.507048965e-006 28.61319733
lwrist  4.824992743e-007 -3.790274832e-007 -28.67250061
lhand  -3.52209515e-031 -36.90370178 -10.60690022
lfingers  90 7.125020027 -90
lthumb  94.80329895 -25.44379425 101.0667496
rclavicle  0 -4.497500157e-015 -2.743230041e-014
rhumerus  -40.60649872 -11.41009998 -76.26750183
rradius  -5.16745672e-007 2.214343908e-008 62.19400024
rwrist  1.129822067e-006 0.001802438172 -164.3179932
rhand  -3.019166977e-031 -2.466710091 -7.658199787
rfingers  -90 -7.125020027 -90
rthumb  -86.53772736 -8.01058197 -66.53179932
rfemur  -12.61593151 14.85149574 13.6309309
rtibia  -0.6322261095 0.6854830384 20.34862137
rfoot  -0.3320504725 -19.16743088 -39.56277847
rtoes  4.06947279 19.61229706 -101.9753418
lfemur  -10.13690567 -16.96133614 -18.43142319
ltibia  2.015024185 1.293605208 15.43539906
lfoot  0.516140461 -28.19607735 33.70677948
ltoes  -8.7183218 -18.07018852 -116.3070374
37
root  35.00251169 36.53104286 -14.66510653 9.963345528 0.6866263747 2.813947439
lowerback  -8.208140373 0.4647180438 1.160899282
upperback  -3.655869961 0.229035005 -2.85255003
thorax  0.8374109864 -0.06569559872 -3.583940029
lowerneck  -15.07250023 3.208189964 2.439219952
upperneck  13.31309986 3.052099943 3.774399996
head  6.514430046 1.871999979 1.113479972
lclavicle  0 -4.497500157e-015 -2.743230041e-014
lhumerus  -44.2696991 26.13019943 70.51260376
lradius  -0.4692585468 -6.507048965e-006 28.72709846
lwrist  4.824992743e-007 -3.790274832e-007 -28.69869995
lhand  -3.526086392e-031 -36.89830017 -10.55959988
lfingers  90 7.125020027 -90
lthumb  94.7907486 -25.39760971 101.056694
rclavicle  0 -4.497500157e-015 -2.743230041e-014
rhumerus  -40.12419891 -10.73309994 -76.60160065
rradius  -5.16745672e-007 2.214343908e-008 63.38240051
rwrist  1.129822067e-006 0.001802438172 -164.8849945
rhand  -3.020371161e-031 -2.198319912 -7.641699791
rfingers  -90 -7.125020027 -90
rthumb  -86.4815979 -8.039988518 -66.26945496
rfemur  -12.61511707 14.87245655 13.63699627
rtibia  -0.6414888501 0.7241228819 20.3730545
rfoot  -0.3343426585 -19.0941391 -39.57389832
rtoes  4.073237419 19.61232185 -101.9865646
lfemur  -10.05589485 -16.97542763 -18.47192764
ltibia  2.06913352 1.304227114 15.32104015
lfoot  0.5028230548 -28.16150665 33.70534134
ltoes  -8.701386452 -18.07813835 -116.252449
38
root  35.00241858 36.53161357 -14.66190759 9.964380264 0.7221237421 2.79700017
lowerback  -8.234910011 0.463721931 1.11300981
upperback  -3.653320074 0.2305739969 -2.856309891
thorax  0.8547449708 -0.06463920325 -3.560689926
lowerneck  -15.03450012 3.25605011 2.495630026
upperneck  13.17870045 3.117000103 3.750950098
head  6.465630054 1.902999997 1.100700021
lclavicle  0 -4.497500157e-015 -2.743230041e-014
lhumerus  -44.37440109 26.22979927 70.4213028
lradius  -0.4699984491 -6.507048965e-006 28.75399971
lwrist  4.824992743e-007 -3.790274832e-007 -28.79719925
lhand  -3.519205588e-031 -36.92210007 -10.63910007
lfingers  90 7.125020027 -90
lthumb  94.81878662 -25.47488403 101.089386
rclavicle  0 -4.497500157e-015 -2.743230041e-014
rhumerus  -39.63610077 -9.882651329 -76.97619629
rradius  -5.16745672e-007 2.214343908e-008 64.44110107
rwrist  1.129822067e-006 0.001802438172 -165.5429993
rhand  -3.008721032e-031 -2.290750027 -7.815090179
rfingers  -90 -7.125020027 -90
rthumb  -86.56887817 -7.876216888 -66.36922455
rfemur  -12.5852623 14.88849545 13.65964222
rtibia  -0.6299425364 0.745857358 20.33513832
rfoot  -0.322064966 -19.06064034 -39.59944534
rtoes  4.099548817 19.61231995 -102.0650177
lfemur  -10.03630638 -17.01440811 -18.45398903
ltibia  2.06922555 1.306564808 15.29605198
lfoot  0.4830850959 -28.14516068 33.69633484
ltoes  -8.699289322 -18.07798767 -116.2456894
39
root  35.00216927 36.53215423 -14.65321638 9.992847443 0.7967037559 2.753753185
lowerback  -8.122980118 0.4320209622 1.004559755
upperback  -3.698440075 0.1919669956 -2.851320028
thorax  0.7432780266 -0.08595730364 -3.496850014
lowerneck  -14.94900036 3.29798007 2.541919947
upperneck  13.08180046 3.172519922 3.74229002
head  6.420629978 1.929579973 1.092859983
lclavicle  0 -4.497500157e-015 -2.743230041e-014
lhumerus  -44.50579834 26.3083992 70.31369781
lradius  -0.4707320631 -6.507048965e-006 28.72430038
lwrist  4.824992743e-007 -3.790274832e-007 -28.86059952
lhand  -3.521050021e-031 -36.89720154 -10.62040043
lfingers  90 7.125020027 -90
lthumb  94.80313873 -25.45737267 101.0610275
rclavicle  0 -4.497500157e-015 -2.743230041e-014
rhumerus  -39.16630173 -9.359769821 -77.17379761
rradius  -5.16745672e-007 2.214343908e-008 65.62609863
rwrist  1.129822067e-006 0.001802438172 -165.9029999
rhand  -3.013718639e-031 -1.75387001 -7.743070126
rfingers  -90 -7.125020027 -90
rthumb  -86.44065857 -7.971547604 -65.84251404
rfemur  -12.54277134 14.87582493 13.69386387
rtibia  -0.5938887 0.7767060399 20.22429466
rfoot  -0.2706049979 -18.99115944 -39.61321259
rtoes  4.082719326 19.61229897 -102.0148315
lfemur  -10.07274342 -16.99298286 -18.38498878
ltibia  2.044471502 1.353857875 15.32572842
lfoot  0.4711720049 -28.24480438 33.61882019
ltoes  -8.696739197 -18.07457352 -116.2374725
40
root  35.00176678 36.532773 -14.64985224 9.993162155 0.8353890181 2.764847517
lowerback  -8.151769638 0.4317789674 0.9794715047
upperback  -3.702399969 0.1921990067 -2.855289936
thorax  0.754998982 -0.08612389863 -3.486860037
lowerneck  -15.02569962 3.320790052 2.525190115
upperneck  13.10519981 3.188539982 3.822210073
head  6.439499855 1.943689942 1.124519944
lclavicle  0 -4.497500157e-015 -2.743230041e-014
lhumerus  -44.56299973 26.30699921 70.26689911
lradius  -0.471459657 -6.507048965e-006 28.72589874
lwrist  4.824992743e-007 -3.790274832e-007 -28.85490036
lhand  -3.519945139e-031 -36.87879944 -10.63630009
lfingers  90 7.125020027 -90
lthumb  94.79788208 -25.47358322 101.0427628
rclavicle  0 -4.497500157e-015 -2.743230041e-014
rhumerus  -38.61009979 -8.712730408 -77.43000031
rradius  -5.16745672e-007 2.214343908e-008 66.74099731
rwrist  1.129822067e-006 0.001802438172 -166.3470001
rhand  -3.004457162e-031 -1.741930008 -7.881420135
rfingers  -90 -7.125020027 -90
rthumb  -86.49563599 -7.845932007 -65.83870697
rfemur  -12.53367138 14.88217163 13.68231106
rtibia  -0.5938322544 0.7854138017 20.22180176
rfoot  -0.2777973115 -18.96130371 -39.66159439
rtoes  4.060878277 19.61225319 -101.9497223
lfemur  -10.10866451 -17.01669502 -18.38944626
ltibia  2.021981955 1.330478072 15.36570168
lfoot  0.4369827211 -28.22048569 33.53609085
ltoes  -8.689574242 -18.07260323 -116.214386
